<?xml version="1.0" encoding="utf-8" standalone="no"?>
<!DOCTYPE svg PUBLIC "-//W3C//DTD SVG 1.1//EN"
  "http://www.w3.org/Graphics/SVG/1.1/DTD/svg11.dtd">
<svg xmlns:xlink="http://www.w3.org/1999/xlink" width="410.050156pt" height="430.413681pt" viewBox="0 0 410.050156 430.413681" xmlns="http://www.w3.org/2000/svg" version="1.1">
 <metadata>
  <rdf:RDF xmlns:dc="http://purl.org/dc/elements/1.1/" xmlns:cc="http://creativecommons.org/ns#" xmlns:rdf="http://www.w3.org/1999/02/22-rdf-syntax-ns#">
   <cc:Work>
    <dc:type rdf:resource="http://purl.org/dc/dcmitype/StillImage"/>
    <dc:date>2026-06-21T08:24:03.987824</dc:date>
    <dc:format>image/svg+xml</dc:format>
    <dc:creator>
     <cc:Agent>
      <dc:title>Matplotlib v3.10.8, https://matplotlib.org/</dc:title>
     </cc:Agent>
    </dc:creator>
   </cc:Work>
  </rdf:RDF>
 </metadata>
 <defs>
  <style type="text/css">*{stroke-linejoin: round; stroke-linecap: butt}</style>
 </defs>
 <g id="figure_1">
  <g id="patch_1">
   <path d="M -0 430.413681 
L 410.050156 430.413681 
L 410.050156 -0 
L -0 -0 
z
" style="fill: #ffffff"/>
  </g>
  <g id="axes_1">
   <g id="patch_2">
    <path d="M 81.925078 343.0704 
L 374.225078 343.0704 
L 374.225078 36.48 
L 81.925078 36.48 
z
" style="fill: #ffffff"/>
   </g>
   <g id="line2d_1">
    <path d="M 81.925078 119.704953 
L 374.225078 119.704953 
" clip-path="url(#p9eab8a25ba)" style="fill: none; stroke-dasharray: 1,1.65; stroke-dashoffset: 0; stroke: #cccccc"/>
   </g>
   <g id="line2d_2">
    <path d="M 161.64326 250.782171 
L 294.506896 175.9589 
" clip-path="url(#p9eab8a25ba)" style="fill: none; stroke: #888888; stroke-opacity: 0.4; stroke-width: 0.8; stroke-linecap: square"/>
   </g>
   <g id="line2d_3">
    <path d="M 161.64326 267.060224 
L 294.506896 192.002192 
" clip-path="url(#p9eab8a25ba)" style="fill: none; stroke: #888888; stroke-opacity: 0.4; stroke-width: 0.8; stroke-linecap: square"/>
   </g>
   <g id="line2d_4">
    <path d="M 161.64326 255.715617 
L 294.506896 192.466725 
" clip-path="url(#p9eab8a25ba)" style="fill: none; stroke: #888888; stroke-opacity: 0.4; stroke-width: 0.8; stroke-linecap: square"/>
   </g>
   <g id="line2d_5">
    <path d="M 161.64326 297.803589 
L 294.506896 51.943376 
" clip-path="url(#p9eab8a25ba)" style="fill: none; stroke: #888888; stroke-opacity: 0.4; stroke-width: 0.8; stroke-linecap: square"/>
   </g>
   <g id="line2d_6">
    <path d="M 161.64326 294.41048 
L 294.506896 142.405625 
" clip-path="url(#p9eab8a25ba)" style="fill: none; stroke: #888888; stroke-opacity: 0.4; stroke-width: 0.8; stroke-linecap: square"/>
   </g>
   <g id="line2d_7">
    <path d="M 161.64326 282.54169 
L 294.506896 147.370236 
" clip-path="url(#p9eab8a25ba)" style="fill: none; stroke: #888888; stroke-opacity: 0.4; stroke-width: 0.8; stroke-linecap: square"/>
   </g>
   <g id="line2d_8">
    <path d="M 161.64326 238.079872 
L 294.506896 171.134103 
" clip-path="url(#p9eab8a25ba)" style="fill: none; stroke: #888888; stroke-opacity: 0.4; stroke-width: 0.8; stroke-linecap: square"/>
   </g>
   <g id="line2d_9">
    <path d="M 161.64326 259.928483 
L 294.506896 156.449751 
" clip-path="url(#p9eab8a25ba)" style="fill: none; stroke: #888888; stroke-opacity: 0.4; stroke-width: 0.8; stroke-linecap: square"/>
   </g>
   <g id="line2d_10">
    <path d="M 161.64326 271.425175 
L 294.506896 118.4676 
" clip-path="url(#p9eab8a25ba)" style="fill: none; stroke: #888888; stroke-opacity: 0.4; stroke-width: 0.8; stroke-linecap: square"/>
   </g>
   <g id="line2d_11">
    <path d="M 161.64326 224.62076 
L 294.506896 190.372578 
" clip-path="url(#p9eab8a25ba)" style="fill: none; stroke: #888888; stroke-opacity: 0.4; stroke-width: 0.8; stroke-linecap: square"/>
   </g>
   <g id="line2d_12">
    <path d="M 161.64326 259.816051 
L 294.506896 117.028377 
" clip-path="url(#p9eab8a25ba)" style="fill: none; stroke: #888888; stroke-opacity: 0.4; stroke-width: 0.8; stroke-linecap: square"/>
   </g>
   <g id="line2d_13">
    <path d="M 161.64326 245.922255 
L 294.506896 62.793272 
" clip-path="url(#p9eab8a25ba)" style="fill: none; stroke: #888888; stroke-opacity: 0.4; stroke-width: 0.8; stroke-linecap: square"/>
   </g>
   <g id="line2d_14">
    <path d="M 161.64326 273.018532 
L 294.506896 86.325476 
" clip-path="url(#p9eab8a25ba)" style="fill: none; stroke: #888888; stroke-opacity: 0.4; stroke-width: 0.8; stroke-linecap: square"/>
   </g>
   <g id="line2d_15">
    <path d="M 161.64326 234.278982 
L 294.506896 161.435276 
" clip-path="url(#p9eab8a25ba)" style="fill: none; stroke: #888888; stroke-opacity: 0.4; stroke-width: 0.8; stroke-linecap: square"/>
   </g>
   <g id="line2d_16">
    <path d="M 161.64326 259.150619 
L 294.506896 181.888605 
" clip-path="url(#p9eab8a25ba)" style="fill: none; stroke: #888888; stroke-opacity: 0.4; stroke-width: 0.8; stroke-linecap: square"/>
   </g>
   <g id="line2d_17">
    <path d="M 161.64326 195.887096 
L 294.506896 50.415927 
" clip-path="url(#p9eab8a25ba)" style="fill: none; stroke: #888888; stroke-opacity: 0.4; stroke-width: 0.8; stroke-linecap: square"/>
   </g>
   <g id="line2d_18">
    <path d="M 161.64326 267.146628 
L 294.506896 85.489509 
" clip-path="url(#p9eab8a25ba)" style="fill: none; stroke: #888888; stroke-opacity: 0.4; stroke-width: 0.8; stroke-linecap: square"/>
   </g>
   <g id="line2d_19">
    <path d="M 161.64326 172.176382 
L 294.506896 110.652752 
" clip-path="url(#p9eab8a25ba)" style="fill: none; stroke: #888888; stroke-opacity: 0.4; stroke-width: 0.8; stroke-linecap: square"/>
   </g>
   <g id="line2d_20">
    <path d="M 161.64326 279.813516 
L 294.506896 127.328932 
" clip-path="url(#p9eab8a25ba)" style="fill: none; stroke: #888888; stroke-opacity: 0.4; stroke-width: 0.8; stroke-linecap: square"/>
   </g>
   <g id="line2d_21">
    <path d="M 161.64326 329.134473 
L 294.506896 145.031142 
" clip-path="url(#p9eab8a25ba)" style="fill: none; stroke: #888888; stroke-opacity: 0.4; stroke-width: 0.8; stroke-linecap: square"/>
   </g>
   <g id="line2d_22">
    <path d="M 161.64326 250.835471 
L 294.506896 131.760135 
" clip-path="url(#p9eab8a25ba)" style="fill: none; stroke: #888888; stroke-opacity: 0.4; stroke-width: 0.8; stroke-linecap: square"/>
   </g>
   <g id="line2d_23">
    <path d="M 161.64326 251.666864 
L 294.506896 201.904118 
" clip-path="url(#p9eab8a25ba)" style="fill: none; stroke: #888888; stroke-opacity: 0.4; stroke-width: 0.8; stroke-linecap: square"/>
   </g>
   <g id="line2d_24">
    <path d="M 161.64326 276.421058 
L 294.506896 124.062749 
" clip-path="url(#p9eab8a25ba)" style="fill: none; stroke: #888888; stroke-opacity: 0.4; stroke-width: 0.8; stroke-linecap: square"/>
   </g>
   <g id="line2d_25">
    <path d="M 161.64326 259.173974 
L 294.506896 122.094667 
" clip-path="url(#p9eab8a25ba)" style="fill: none; stroke: #888888; stroke-opacity: 0.4; stroke-width: 0.8; stroke-linecap: square"/>
   </g>
   <g id="line2d_26">
    <path d="M 161.64326 306.6921 
L 294.506896 176.442451 
" clip-path="url(#p9eab8a25ba)" style="fill: none; stroke: #888888; stroke-opacity: 0.4; stroke-width: 0.8; stroke-linecap: square"/>
   </g>
   <g id="line2d_27">
    <path d="M 161.64326 253.305578 
L 294.506896 157.242208 
" clip-path="url(#p9eab8a25ba)" style="fill: none; stroke: #888888; stroke-opacity: 0.4; stroke-width: 0.8; stroke-linecap: square"/>
   </g>
   <g id="line2d_28">
    <path d="M 161.64326 260.486763 
L 294.506896 169.095529 
" clip-path="url(#p9eab8a25ba)" style="fill: none; stroke: #888888; stroke-opacity: 0.4; stroke-width: 0.8; stroke-linecap: square"/>
   </g>
   <g id="line2d_29">
    <path d="M 161.64326 249.941514 
L 294.506896 184.388041 
" clip-path="url(#p9eab8a25ba)" style="fill: none; stroke: #888888; stroke-opacity: 0.4; stroke-width: 0.8; stroke-linecap: square"/>
   </g>
   <g id="line2d_30">
    <path d="M 161.64326 297.426693 
L 294.506896 85.658054 
" clip-path="url(#p9eab8a25ba)" style="fill: none; stroke: #888888; stroke-opacity: 0.4; stroke-width: 0.8; stroke-linecap: square"/>
   </g>
   <g id="line2d_31">
    <path d="M 161.64326 265.97455 
L 294.506896 131.009185 
" clip-path="url(#p9eab8a25ba)" style="fill: none; stroke: #888888; stroke-opacity: 0.4; stroke-width: 0.8; stroke-linecap: square"/>
   </g>
   <g id="line2d_32">
    <path d="M 161.64326 265.304761 
L 294.506896 163.886579 
" clip-path="url(#p9eab8a25ba)" style="fill: none; stroke: #888888; stroke-opacity: 0.4; stroke-width: 0.8; stroke-linecap: square"/>
   </g>
   <g id="line2d_33">
    <path d="M 161.64326 272.515628 
L 294.506896 178.652475 
" clip-path="url(#p9eab8a25ba)" style="fill: none; stroke: #888888; stroke-opacity: 0.4; stroke-width: 0.8; stroke-linecap: square"/>
   </g>
   <g id="line2d_34">
    <path d="M 161.64326 300.566972 
L 294.506896 147.86751 
" clip-path="url(#p9eab8a25ba)" style="fill: none; stroke: #888888; stroke-opacity: 0.4; stroke-width: 0.8; stroke-linecap: square"/>
   </g>
   <g id="matplotlib.axis_1">
    <g id="xtick_1">
     <g id="line2d_35">
      <defs>
       <path id="m678ea41ca8" d="M 0 0 
L 0 3.5 
" style="stroke: #000000; stroke-width: 0.8"/>
      </defs>
      <g>
       <use xlink:href="#m678ea41ca8" x="161.64326" y="343.0704" style="stroke: #000000; stroke-width: 0.8"/>
      </g>
     </g>
     <g id="text_1">
      <!-- Adjacent-normal -->
      <g transform="translate(116.281151 358.428681) scale(0.11 -0.11)">
       <defs>
        <path id="DejaVuSans-41" d="M 2188 4044 
L 1331 1722 
L 3047 1722 
L 2188 4044 
z
M 1831 4666 
L 2547 4666 
L 4325 0 
L 3669 0 
L 3244 1197 
L 1141 1197 
L 716 0 
L 50 0 
L 1831 4666 
z
" transform="scale(0.015625)"/>
        <path id="DejaVuSans-64" d="M 2906 2969 
L 2906 4863 
L 3481 4863 
L 3481 0 
L 2906 0 
L 2906 525 
Q 2725 213 2448 61 
Q 2172 -91 1784 -91 
Q 1150 -91 751 415 
Q 353 922 353 1747 
Q 353 2572 751 3078 
Q 1150 3584 1784 3584 
Q 2172 3584 2448 3432 
Q 2725 3281 2906 2969 
z
M 947 1747 
Q 947 1113 1208 752 
Q 1469 391 1925 391 
Q 2381 391 2643 752 
Q 2906 1113 2906 1747 
Q 2906 2381 2643 2742 
Q 2381 3103 1925 3103 
Q 1469 3103 1208 2742 
Q 947 2381 947 1747 
z
" transform="scale(0.015625)"/>
        <path id="DejaVuSans-6a" d="M 603 3500 
L 1178 3500 
L 1178 -63 
Q 1178 -731 923 -1031 
Q 669 -1331 103 -1331 
L -116 -1331 
L -116 -844 
L 38 -844 
Q 366 -844 484 -692 
Q 603 -541 603 -63 
L 603 3500 
z
M 603 4863 
L 1178 4863 
L 1178 4134 
L 603 4134 
L 603 4863 
z
" transform="scale(0.015625)"/>
        <path id="DejaVuSans-61" d="M 2194 1759 
Q 1497 1759 1228 1600 
Q 959 1441 959 1056 
Q 959 750 1161 570 
Q 1363 391 1709 391 
Q 2188 391 2477 730 
Q 2766 1069 2766 1631 
L 2766 1759 
L 2194 1759 
z
M 3341 1997 
L 3341 0 
L 2766 0 
L 2766 531 
Q 2569 213 2275 61 
Q 1981 -91 1556 -91 
Q 1019 -91 701 211 
Q 384 513 384 1019 
Q 384 1609 779 1909 
Q 1175 2209 1959 2209 
L 2766 2209 
L 2766 2266 
Q 2766 2663 2505 2880 
Q 2244 3097 1772 3097 
Q 1472 3097 1187 3025 
Q 903 2953 641 2809 
L 641 3341 
Q 956 3463 1253 3523 
Q 1550 3584 1831 3584 
Q 2591 3584 2966 3190 
Q 3341 2797 3341 1997 
z
" transform="scale(0.015625)"/>
        <path id="DejaVuSans-63" d="M 3122 3366 
L 3122 2828 
Q 2878 2963 2633 3030 
Q 2388 3097 2138 3097 
Q 1578 3097 1268 2742 
Q 959 2388 959 1747 
Q 959 1106 1268 751 
Q 1578 397 2138 397 
Q 2388 397 2633 464 
Q 2878 531 3122 666 
L 3122 134 
Q 2881 22 2623 -34 
Q 2366 -91 2075 -91 
Q 1284 -91 818 406 
Q 353 903 353 1747 
Q 353 2603 823 3093 
Q 1294 3584 2113 3584 
Q 2378 3584 2631 3529 
Q 2884 3475 3122 3366 
z
" transform="scale(0.015625)"/>
        <path id="DejaVuSans-65" d="M 3597 1894 
L 3597 1613 
L 953 1613 
Q 991 1019 1311 708 
Q 1631 397 2203 397 
Q 2534 397 2845 478 
Q 3156 559 3463 722 
L 3463 178 
Q 3153 47 2828 -22 
Q 2503 -91 2169 -91 
Q 1331 -91 842 396 
Q 353 884 353 1716 
Q 353 2575 817 3079 
Q 1281 3584 2069 3584 
Q 2775 3584 3186 3129 
Q 3597 2675 3597 1894 
z
M 3022 2063 
Q 3016 2534 2758 2815 
Q 2500 3097 2075 3097 
Q 1594 3097 1305 2825 
Q 1016 2553 972 2059 
L 3022 2063 
z
" transform="scale(0.015625)"/>
        <path id="DejaVuSans-6e" d="M 3513 2113 
L 3513 0 
L 2938 0 
L 2938 2094 
Q 2938 2591 2744 2837 
Q 2550 3084 2163 3084 
Q 1697 3084 1428 2787 
Q 1159 2491 1159 1978 
L 1159 0 
L 581 0 
L 581 3500 
L 1159 3500 
L 1159 2956 
Q 1366 3272 1645 3428 
Q 1925 3584 2291 3584 
Q 2894 3584 3203 3211 
Q 3513 2838 3513 2113 
z
" transform="scale(0.015625)"/>
        <path id="DejaVuSans-74" d="M 1172 4494 
L 1172 3500 
L 2356 3500 
L 2356 3053 
L 1172 3053 
L 1172 1153 
Q 1172 725 1289 603 
Q 1406 481 1766 481 
L 2356 481 
L 2356 0 
L 1766 0 
Q 1100 0 847 248 
Q 594 497 594 1153 
L 594 3053 
L 172 3053 
L 172 3500 
L 594 3500 
L 594 4494 
L 1172 4494 
z
" transform="scale(0.015625)"/>
        <path id="DejaVuSans-2d" d="M 313 2009 
L 1997 2009 
L 1997 1497 
L 313 1497 
L 313 2009 
z
" transform="scale(0.015625)"/>
        <path id="DejaVuSans-6f" d="M 1959 3097 
Q 1497 3097 1228 2736 
Q 959 2375 959 1747 
Q 959 1119 1226 758 
Q 1494 397 1959 397 
Q 2419 397 2687 759 
Q 2956 1122 2956 1747 
Q 2956 2369 2687 2733 
Q 2419 3097 1959 3097 
z
M 1959 3584 
Q 2709 3584 3137 3096 
Q 3566 2609 3566 1747 
Q 3566 888 3137 398 
Q 2709 -91 1959 -91 
Q 1206 -91 779 398 
Q 353 888 353 1747 
Q 353 2609 779 3096 
Q 1206 3584 1959 3584 
z
" transform="scale(0.015625)"/>
        <path id="DejaVuSans-72" d="M 2631 2963 
Q 2534 3019 2420 3045 
Q 2306 3072 2169 3072 
Q 1681 3072 1420 2755 
Q 1159 2438 1159 1844 
L 1159 0 
L 581 0 
L 581 3500 
L 1159 3500 
L 1159 2956 
Q 1341 3275 1631 3429 
Q 1922 3584 2338 3584 
Q 2397 3584 2469 3576 
Q 2541 3569 2628 3553 
L 2631 2963 
z
" transform="scale(0.015625)"/>
        <path id="DejaVuSans-6d" d="M 3328 2828 
Q 3544 3216 3844 3400 
Q 4144 3584 4550 3584 
Q 5097 3584 5394 3201 
Q 5691 2819 5691 2113 
L 5691 0 
L 5113 0 
L 5113 2094 
Q 5113 2597 4934 2840 
Q 4756 3084 4391 3084 
Q 3944 3084 3684 2787 
Q 3425 2491 3425 1978 
L 3425 0 
L 2847 0 
L 2847 2094 
Q 2847 2600 2669 2842 
Q 2491 3084 2119 3084 
Q 1678 3084 1418 2786 
Q 1159 2488 1159 1978 
L 1159 0 
L 581 0 
L 581 3500 
L 1159 3500 
L 1159 2956 
Q 1356 3278 1631 3431 
Q 1906 3584 2284 3584 
Q 2666 3584 2933 3390 
Q 3200 3197 3328 2828 
z
" transform="scale(0.015625)"/>
        <path id="DejaVuSans-6c" d="M 603 4863 
L 1178 4863 
L 1178 0 
L 603 0 
L 603 4863 
z
" transform="scale(0.015625)"/>
       </defs>
       <use xlink:href="#DejaVuSans-41"/>
       <use xlink:href="#DejaVuSans-64" transform="translate(66.658203 0)"/>
       <use xlink:href="#DejaVuSans-6a" transform="translate(130.134766 0)"/>
       <use xlink:href="#DejaVuSans-61" transform="translate(157.917969 0)"/>
       <use xlink:href="#DejaVuSans-63" transform="translate(219.197266 0)"/>
       <use xlink:href="#DejaVuSans-65" transform="translate(274.177734 0)"/>
       <use xlink:href="#DejaVuSans-6e" transform="translate(335.701172 0)"/>
       <use xlink:href="#DejaVuSans-74" transform="translate(399.080078 0)"/>
       <use xlink:href="#DejaVuSans-2d" transform="translate(438.289062 0)"/>
       <use xlink:href="#DejaVuSans-6e" transform="translate(474.373047 0)"/>
       <use xlink:href="#DejaVuSans-6f" transform="translate(537.751953 0)"/>
       <use xlink:href="#DejaVuSans-72" transform="translate(598.933594 0)"/>
       <use xlink:href="#DejaVuSans-6d" transform="translate(638.296875 0)"/>
       <use xlink:href="#DejaVuSans-61" transform="translate(735.708984 0)"/>
       <use xlink:href="#DejaVuSans-6c" transform="translate(796.988281 0)"/>
      </g>
     </g>
    </g>
    <g id="xtick_2">
     <g id="line2d_36">
      <g>
       <use xlink:href="#m678ea41ca8" x="294.506896" y="343.0704" style="stroke: #000000; stroke-width: 0.8"/>
      </g>
     </g>
     <g id="text_2">
      <!-- Tumor -->
      <g transform="translate(277.510178 358.428681) scale(0.11 -0.11)">
       <defs>
        <path id="DejaVuSans-54" d="M -19 4666 
L 3928 4666 
L 3928 4134 
L 2272 4134 
L 2272 0 
L 1638 0 
L 1638 4134 
L -19 4134 
L -19 4666 
z
" transform="scale(0.015625)"/>
        <path id="DejaVuSans-75" d="M 544 1381 
L 544 3500 
L 1119 3500 
L 1119 1403 
Q 1119 906 1312 657 
Q 1506 409 1894 409 
Q 2359 409 2629 706 
Q 2900 1003 2900 1516 
L 2900 3500 
L 3475 3500 
L 3475 0 
L 2900 0 
L 2900 538 
Q 2691 219 2414 64 
Q 2138 -91 1772 -91 
Q 1169 -91 856 284 
Q 544 659 544 1381 
z
M 1991 3584 
L 1991 3584 
z
" transform="scale(0.015625)"/>
       </defs>
       <use xlink:href="#DejaVuSans-54"/>
       <use xlink:href="#DejaVuSans-75" transform="translate(45.958984 0)"/>
       <use xlink:href="#DejaVuSans-6d" transform="translate(109.337891 0)"/>
       <use xlink:href="#DejaVuSans-6f" transform="translate(206.75 0)"/>
       <use xlink:href="#DejaVuSans-72" transform="translate(267.931641 0)"/>
      </g>
     </g>
    </g>
   </g>
   <g id="matplotlib.axis_2">
    <g id="ytick_1">
     <g id="line2d_37">
      <defs>
       <path id="mff4656878d" d="M 0 0 
L -3.5 0 
" style="stroke: #000000; stroke-width: 0.8"/>
      </defs>
      <g>
       <use xlink:href="#mff4656878d" x="81.925078" y="313.725044" style="stroke: #000000; stroke-width: 0.8"/>
      </g>
     </g>
     <g id="text_3">
      <!-- −0.6 -->
      <g transform="translate(50.642266 317.524263) scale(0.1 -0.1)">
       <defs>
        <path id="DejaVuSans-2212" d="M 678 2272 
L 4684 2272 
L 4684 1741 
L 678 1741 
L 678 2272 
z
" transform="scale(0.015625)"/>
        <path id="DejaVuSans-30" d="M 2034 4250 
Q 1547 4250 1301 3770 
Q 1056 3291 1056 2328 
Q 1056 1369 1301 889 
Q 1547 409 2034 409 
Q 2525 409 2770 889 
Q 3016 1369 3016 2328 
Q 3016 3291 2770 3770 
Q 2525 4250 2034 4250 
z
M 2034 4750 
Q 2819 4750 3233 4129 
Q 3647 3509 3647 2328 
Q 3647 1150 3233 529 
Q 2819 -91 2034 -91 
Q 1250 -91 836 529 
Q 422 1150 422 2328 
Q 422 3509 836 4129 
Q 1250 4750 2034 4750 
z
" transform="scale(0.015625)"/>
        <path id="DejaVuSans-2e" d="M 684 794 
L 1344 794 
L 1344 0 
L 684 0 
L 684 794 
z
" transform="scale(0.015625)"/>
        <path id="DejaVuSans-36" d="M 2113 2584 
Q 1688 2584 1439 2293 
Q 1191 2003 1191 1497 
Q 1191 994 1439 701 
Q 1688 409 2113 409 
Q 2538 409 2786 701 
Q 3034 994 3034 1497 
Q 3034 2003 2786 2293 
Q 2538 2584 2113 2584 
z
M 3366 4563 
L 3366 3988 
Q 3128 4100 2886 4159 
Q 2644 4219 2406 4219 
Q 1781 4219 1451 3797 
Q 1122 3375 1075 2522 
Q 1259 2794 1537 2939 
Q 1816 3084 2150 3084 
Q 2853 3084 3261 2657 
Q 3669 2231 3669 1497 
Q 3669 778 3244 343 
Q 2819 -91 2113 -91 
Q 1303 -91 875 529 
Q 447 1150 447 2328 
Q 447 3434 972 4092 
Q 1497 4750 2381 4750 
Q 2619 4750 2861 4703 
Q 3103 4656 3366 4563 
z
" transform="scale(0.015625)"/>
       </defs>
       <use xlink:href="#DejaVuSans-2212"/>
       <use xlink:href="#DejaVuSans-30" transform="translate(83.789062 0)"/>
       <use xlink:href="#DejaVuSans-2e" transform="translate(147.412109 0)"/>
       <use xlink:href="#DejaVuSans-36" transform="translate(179.199219 0)"/>
      </g>
     </g>
    </g>
    <g id="ytick_2">
     <g id="line2d_38">
      <g>
       <use xlink:href="#mff4656878d" x="81.925078" y="249.05168" style="stroke: #000000; stroke-width: 0.8"/>
      </g>
     </g>
     <g id="text_4">
      <!-- −0.4 -->
      <g transform="translate(50.642266 252.850899) scale(0.1 -0.1)">
       <defs>
        <path id="DejaVuSans-34" d="M 2419 4116 
L 825 1625 
L 2419 1625 
L 2419 4116 
z
M 2253 4666 
L 3047 4666 
L 3047 1625 
L 3713 1625 
L 3713 1100 
L 3047 1100 
L 3047 0 
L 2419 0 
L 2419 1100 
L 313 1100 
L 313 1709 
L 2253 4666 
z
" transform="scale(0.015625)"/>
       </defs>
       <use xlink:href="#DejaVuSans-2212"/>
       <use xlink:href="#DejaVuSans-30" transform="translate(83.789062 0)"/>
       <use xlink:href="#DejaVuSans-2e" transform="translate(147.412109 0)"/>
       <use xlink:href="#DejaVuSans-34" transform="translate(179.199219 0)"/>
      </g>
     </g>
    </g>
    <g id="ytick_3">
     <g id="line2d_39">
      <g>
       <use xlink:href="#mff4656878d" x="81.925078" y="184.378317" style="stroke: #000000; stroke-width: 0.8"/>
      </g>
     </g>
     <g id="text_5">
      <!-- −0.2 -->
      <g transform="translate(50.642266 188.177535) scale(0.1 -0.1)">
       <defs>
        <path id="DejaVuSans-32" d="M 1228 531 
L 3431 531 
L 3431 0 
L 469 0 
L 469 531 
Q 828 903 1448 1529 
Q 2069 2156 2228 2338 
Q 2531 2678 2651 2914 
Q 2772 3150 2772 3378 
Q 2772 3750 2511 3984 
Q 2250 4219 1831 4219 
Q 1534 4219 1204 4116 
Q 875 4013 500 3803 
L 500 4441 
Q 881 4594 1212 4672 
Q 1544 4750 1819 4750 
Q 2544 4750 2975 4387 
Q 3406 4025 3406 3419 
Q 3406 3131 3298 2873 
Q 3191 2616 2906 2266 
Q 2828 2175 2409 1742 
Q 1991 1309 1228 531 
z
" transform="scale(0.015625)"/>
       </defs>
       <use xlink:href="#DejaVuSans-2212"/>
       <use xlink:href="#DejaVuSans-30" transform="translate(83.789062 0)"/>
       <use xlink:href="#DejaVuSans-2e" transform="translate(147.412109 0)"/>
       <use xlink:href="#DejaVuSans-32" transform="translate(179.199219 0)"/>
      </g>
     </g>
    </g>
    <g id="ytick_4">
     <g id="line2d_40">
      <g>
       <use xlink:href="#mff4656878d" x="81.925078" y="119.704953" style="stroke: #000000; stroke-width: 0.8"/>
      </g>
     </g>
     <g id="text_6">
      <!-- 0.0 -->
      <g transform="translate(59.021953 123.504172) scale(0.1 -0.1)">
       <use xlink:href="#DejaVuSans-30"/>
       <use xlink:href="#DejaVuSans-2e" transform="translate(63.623047 0)"/>
       <use xlink:href="#DejaVuSans-30" transform="translate(95.410156 0)"/>
      </g>
     </g>
    </g>
    <g id="ytick_5">
     <g id="line2d_41">
      <g>
       <use xlink:href="#mff4656878d" x="81.925078" y="55.031589" style="stroke: #000000; stroke-width: 0.8"/>
      </g>
     </g>
     <g id="text_7">
      <!-- 0.2 -->
      <g transform="translate(59.021953 58.830808) scale(0.1 -0.1)">
       <use xlink:href="#DejaVuSans-30"/>
       <use xlink:href="#DejaVuSans-2e" transform="translate(63.623047 0)"/>
       <use xlink:href="#DejaVuSans-32" transform="translate(95.410156 0)"/>
      </g>
     </g>
    </g>
    <g id="text_8">
     <!-- Per-patient correlation r  (ISC score vs lipid/FAO score) -->
     <g transform="translate(44.354609 338.493481) rotate(-90) scale(0.11 -0.11)">
      <defs>
       <path id="DejaVuSans-50" d="M 1259 4147 
L 1259 2394 
L 2053 2394 
Q 2494 2394 2734 2622 
Q 2975 2850 2975 3272 
Q 2975 3691 2734 3919 
Q 2494 4147 2053 4147 
L 1259 4147 
z
M 628 4666 
L 2053 4666 
Q 2838 4666 3239 4311 
Q 3641 3956 3641 3272 
Q 3641 2581 3239 2228 
Q 2838 1875 2053 1875 
L 1259 1875 
L 1259 0 
L 628 0 
L 628 4666 
z
" transform="scale(0.015625)"/>
       <path id="DejaVuSans-70" d="M 1159 525 
L 1159 -1331 
L 581 -1331 
L 581 3500 
L 1159 3500 
L 1159 2969 
Q 1341 3281 1617 3432 
Q 1894 3584 2278 3584 
Q 2916 3584 3314 3078 
Q 3713 2572 3713 1747 
Q 3713 922 3314 415 
Q 2916 -91 2278 -91 
Q 1894 -91 1617 61 
Q 1341 213 1159 525 
z
M 3116 1747 
Q 3116 2381 2855 2742 
Q 2594 3103 2138 3103 
Q 1681 3103 1420 2742 
Q 1159 2381 1159 1747 
Q 1159 1113 1420 752 
Q 1681 391 2138 391 
Q 2594 391 2855 752 
Q 3116 1113 3116 1747 
z
" transform="scale(0.015625)"/>
       <path id="DejaVuSans-69" d="M 603 3500 
L 1178 3500 
L 1178 0 
L 603 0 
L 603 3500 
z
M 603 4863 
L 1178 4863 
L 1178 4134 
L 603 4134 
L 603 4863 
z
" transform="scale(0.015625)"/>
       <path id="DejaVuSans-20" transform="scale(0.015625)"/>
       <path id="DejaVuSans-28" d="M 1984 4856 
Q 1566 4138 1362 3434 
Q 1159 2731 1159 2009 
Q 1159 1288 1364 580 
Q 1569 -128 1984 -844 
L 1484 -844 
Q 1016 -109 783 600 
Q 550 1309 550 2009 
Q 550 2706 781 3412 
Q 1013 4119 1484 4856 
L 1984 4856 
z
" transform="scale(0.015625)"/>
       <path id="DejaVuSans-49" d="M 628 4666 
L 1259 4666 
L 1259 0 
L 628 0 
L 628 4666 
z
" transform="scale(0.015625)"/>
       <path id="DejaVuSans-53" d="M 3425 4513 
L 3425 3897 
Q 3066 4069 2747 4153 
Q 2428 4238 2131 4238 
Q 1616 4238 1336 4038 
Q 1056 3838 1056 3469 
Q 1056 3159 1242 3001 
Q 1428 2844 1947 2747 
L 2328 2669 
Q 3034 2534 3370 2195 
Q 3706 1856 3706 1288 
Q 3706 609 3251 259 
Q 2797 -91 1919 -91 
Q 1588 -91 1214 -16 
Q 841 59 441 206 
L 441 856 
Q 825 641 1194 531 
Q 1563 422 1919 422 
Q 2459 422 2753 634 
Q 3047 847 3047 1241 
Q 3047 1584 2836 1778 
Q 2625 1972 2144 2069 
L 1759 2144 
Q 1053 2284 737 2584 
Q 422 2884 422 3419 
Q 422 4038 858 4394 
Q 1294 4750 2059 4750 
Q 2388 4750 2728 4690 
Q 3069 4631 3425 4513 
z
" transform="scale(0.015625)"/>
       <path id="DejaVuSans-43" d="M 4122 4306 
L 4122 3641 
Q 3803 3938 3442 4084 
Q 3081 4231 2675 4231 
Q 1875 4231 1450 3742 
Q 1025 3253 1025 2328 
Q 1025 1406 1450 917 
Q 1875 428 2675 428 
Q 3081 428 3442 575 
Q 3803 722 4122 1019 
L 4122 359 
Q 3791 134 3420 21 
Q 3050 -91 2638 -91 
Q 1578 -91 968 557 
Q 359 1206 359 2328 
Q 359 3453 968 4101 
Q 1578 4750 2638 4750 
Q 3056 4750 3426 4639 
Q 3797 4528 4122 4306 
z
" transform="scale(0.015625)"/>
       <path id="DejaVuSans-73" d="M 2834 3397 
L 2834 2853 
Q 2591 2978 2328 3040 
Q 2066 3103 1784 3103 
Q 1356 3103 1142 2972 
Q 928 2841 928 2578 
Q 928 2378 1081 2264 
Q 1234 2150 1697 2047 
L 1894 2003 
Q 2506 1872 2764 1633 
Q 3022 1394 3022 966 
Q 3022 478 2636 193 
Q 2250 -91 1575 -91 
Q 1294 -91 989 -36 
Q 684 19 347 128 
L 347 722 
Q 666 556 975 473 
Q 1284 391 1588 391 
Q 1994 391 2212 530 
Q 2431 669 2431 922 
Q 2431 1156 2273 1281 
Q 2116 1406 1581 1522 
L 1381 1569 
Q 847 1681 609 1914 
Q 372 2147 372 2553 
Q 372 3047 722 3315 
Q 1072 3584 1716 3584 
Q 2034 3584 2315 3537 
Q 2597 3491 2834 3397 
z
" transform="scale(0.015625)"/>
       <path id="DejaVuSans-76" d="M 191 3500 
L 800 3500 
L 1894 563 
L 2988 3500 
L 3597 3500 
L 2284 0 
L 1503 0 
L 191 3500 
z
" transform="scale(0.015625)"/>
       <path id="DejaVuSans-2f" d="M 1625 4666 
L 2156 4666 
L 531 -594 
L 0 -594 
L 1625 4666 
z
" transform="scale(0.015625)"/>
       <path id="DejaVuSans-46" d="M 628 4666 
L 3309 4666 
L 3309 4134 
L 1259 4134 
L 1259 2759 
L 3109 2759 
L 3109 2228 
L 1259 2228 
L 1259 0 
L 628 0 
L 628 4666 
z
" transform="scale(0.015625)"/>
       <path id="DejaVuSans-4f" d="M 2522 4238 
Q 1834 4238 1429 3725 
Q 1025 3213 1025 2328 
Q 1025 1447 1429 934 
Q 1834 422 2522 422 
Q 3209 422 3611 934 
Q 4013 1447 4013 2328 
Q 4013 3213 3611 3725 
Q 3209 4238 2522 4238 
z
M 2522 4750 
Q 3503 4750 4090 4092 
Q 4678 3434 4678 2328 
Q 4678 1225 4090 567 
Q 3503 -91 2522 -91 
Q 1538 -91 948 565 
Q 359 1222 359 2328 
Q 359 3434 948 4092 
Q 1538 4750 2522 4750 
z
" transform="scale(0.015625)"/>
       <path id="DejaVuSans-29" d="M 513 4856 
L 1013 4856 
Q 1481 4119 1714 3412 
Q 1947 2706 1947 2009 
Q 1947 1309 1714 600 
Q 1481 -109 1013 -844 
L 513 -844 
Q 928 -128 1133 580 
Q 1338 1288 1338 2009 
Q 1338 2731 1133 3434 
Q 928 4138 513 4856 
z
" transform="scale(0.015625)"/>
      </defs>
      <use xlink:href="#DejaVuSans-50"/>
      <use xlink:href="#DejaVuSans-65" transform="translate(56.677734 0)"/>
      <use xlink:href="#DejaVuSans-72" transform="translate(118.201172 0)"/>
      <use xlink:href="#DejaVuSans-2d" transform="translate(152.939453 0)"/>
      <use xlink:href="#DejaVuSans-70" transform="translate(189.023438 0)"/>
      <use xlink:href="#DejaVuSans-61" transform="translate(252.5 0)"/>
      <use xlink:href="#DejaVuSans-74" transform="translate(313.779297 0)"/>
      <use xlink:href="#DejaVuSans-69" transform="translate(352.988281 0)"/>
      <use xlink:href="#DejaVuSans-65" transform="translate(380.771484 0)"/>
      <use xlink:href="#DejaVuSans-6e" transform="translate(442.294922 0)"/>
      <use xlink:href="#DejaVuSans-74" transform="translate(505.673828 0)"/>
      <use xlink:href="#DejaVuSans-20" transform="translate(544.882812 0)"/>
      <use xlink:href="#DejaVuSans-63" transform="translate(576.669922 0)"/>
      <use xlink:href="#DejaVuSans-6f" transform="translate(631.650391 0)"/>
      <use xlink:href="#DejaVuSans-72" transform="translate(692.832031 0)"/>
      <use xlink:href="#DejaVuSans-72" transform="translate(732.195312 0)"/>
      <use xlink:href="#DejaVuSans-65" transform="translate(771.058594 0)"/>
      <use xlink:href="#DejaVuSans-6c" transform="translate(832.582031 0)"/>
      <use xlink:href="#DejaVuSans-61" transform="translate(860.365234 0)"/>
      <use xlink:href="#DejaVuSans-74" transform="translate(921.644531 0)"/>
      <use xlink:href="#DejaVuSans-69" transform="translate(960.853516 0)"/>
      <use xlink:href="#DejaVuSans-6f" transform="translate(988.636719 0)"/>
      <use xlink:href="#DejaVuSans-6e" transform="translate(1049.818359 0)"/>
      <use xlink:href="#DejaVuSans-20" transform="translate(1113.197266 0)"/>
      <use xlink:href="#DejaVuSans-72" transform="translate(1144.984375 0)"/>
      <use xlink:href="#DejaVuSans-20" transform="translate(1186.097656 0)"/>
      <use xlink:href="#DejaVuSans-20" transform="translate(1217.884766 0)"/>
      <use xlink:href="#DejaVuSans-28" transform="translate(1249.671875 0)"/>
      <use xlink:href="#DejaVuSans-49" transform="translate(1288.685547 0)"/>
      <use xlink:href="#DejaVuSans-53" transform="translate(1318.177734 0)"/>
      <use xlink:href="#DejaVuSans-43" transform="translate(1381.654297 0)"/>
      <use xlink:href="#DejaVuSans-20" transform="translate(1451.478516 0)"/>
      <use xlink:href="#DejaVuSans-73" transform="translate(1483.265625 0)"/>
      <use xlink:href="#DejaVuSans-63" transform="translate(1535.365234 0)"/>
      <use xlink:href="#DejaVuSans-6f" transform="translate(1590.345703 0)"/>
      <use xlink:href="#DejaVuSans-72" transform="translate(1651.527344 0)"/>
      <use xlink:href="#DejaVuSans-65" transform="translate(1690.390625 0)"/>
      <use xlink:href="#DejaVuSans-20" transform="translate(1751.914062 0)"/>
      <use xlink:href="#DejaVuSans-76" transform="translate(1783.701172 0)"/>
      <use xlink:href="#DejaVuSans-73" transform="translate(1842.880859 0)"/>
      <use xlink:href="#DejaVuSans-20" transform="translate(1894.980469 0)"/>
      <use xlink:href="#DejaVuSans-6c" transform="translate(1926.767578 0)"/>
      <use xlink:href="#DejaVuSans-69" transform="translate(1954.550781 0)"/>
      <use xlink:href="#DejaVuSans-70" transform="translate(1982.333984 0)"/>
      <use xlink:href="#DejaVuSans-69" transform="translate(2045.810547 0)"/>
      <use xlink:href="#DejaVuSans-64" transform="translate(2073.59375 0)"/>
      <use xlink:href="#DejaVuSans-2f" transform="translate(2137.070312 0)"/>
      <use xlink:href="#DejaVuSans-46" transform="translate(2170.761719 0)"/>
      <use xlink:href="#DejaVuSans-41" transform="translate(2219.15625 0)"/>
      <use xlink:href="#DejaVuSans-4f" transform="translate(2285.814453 0)"/>
      <use xlink:href="#DejaVuSans-20" transform="translate(2364.525391 0)"/>
      <use xlink:href="#DejaVuSans-73" transform="translate(2396.3125 0)"/>
      <use xlink:href="#DejaVuSans-63" transform="translate(2448.412109 0)"/>
      <use xlink:href="#DejaVuSans-6f" transform="translate(2503.392578 0)"/>
      <use xlink:href="#DejaVuSans-72" transform="translate(2564.574219 0)"/>
      <use xlink:href="#DejaVuSans-65" transform="translate(2603.4375 0)"/>
      <use xlink:href="#DejaVuSans-29" transform="translate(2664.960938 0)"/>
     </g>
    </g>
   </g>
   <g id="line2d_42">
    <path d="M 161.64326 205.004152 
L 294.506896 227.449305 
" clip-path="url(#p9eab8a25ba)" style="fill: none; stroke: #c47a3a; stroke-opacity: 0.7; stroke-width: 0.8; stroke-linecap: square"/>
   </g>
   <g id="patch_3">
    <path d="M 81.925078 343.0704 
L 81.925078 36.48 
" style="fill: none; stroke: #000000; stroke-width: 0.8; stroke-linejoin: miter; stroke-linecap: square"/>
   </g>
   <g id="patch_4">
    <path d="M 81.925078 343.0704 
L 374.225078 343.0704 
" style="fill: none; stroke: #000000; stroke-width: 0.8; stroke-linejoin: miter; stroke-linecap: square"/>
   </g>
   <g id="text_9">
    <!-- mean -0.44 -->
    <g style="fill: #1a1a2e" transform="translate(85.494858 263.62225) scale(0.095 -0.095)">
     <defs>
      <path id="DejaVuSans-Bold-6d" d="M 3781 2919 
Q 3994 3244 4286 3414 
Q 4578 3584 4928 3584 
Q 5531 3584 5847 3212 
Q 6163 2841 6163 2131 
L 6163 0 
L 5038 0 
L 5038 1825 
Q 5041 1866 5042 1909 
Q 5044 1953 5044 2034 
Q 5044 2406 4934 2573 
Q 4825 2741 4581 2741 
Q 4263 2741 4089 2478 
Q 3916 2216 3909 1719 
L 3909 0 
L 2784 0 
L 2784 1825 
Q 2784 2406 2684 2573 
Q 2584 2741 2328 2741 
Q 2006 2741 1831 2477 
Q 1656 2213 1656 1722 
L 1656 0 
L 531 0 
L 531 3500 
L 1656 3500 
L 1656 2988 
Q 1863 3284 2130 3434 
Q 2397 3584 2719 3584 
Q 3081 3584 3359 3409 
Q 3638 3234 3781 2919 
z
" transform="scale(0.015625)"/>
      <path id="DejaVuSans-Bold-65" d="M 4031 1759 
L 4031 1441 
L 1416 1441 
Q 1456 1047 1700 850 
Q 1944 653 2381 653 
Q 2734 653 3104 758 
Q 3475 863 3866 1075 
L 3866 213 
Q 3469 63 3072 -14 
Q 2675 -91 2278 -91 
Q 1328 -91 801 392 
Q 275 875 275 1747 
Q 275 2603 792 3093 
Q 1309 3584 2216 3584 
Q 3041 3584 3536 3087 
Q 4031 2591 4031 1759 
z
M 2881 2131 
Q 2881 2450 2695 2645 
Q 2509 2841 2209 2841 
Q 1884 2841 1681 2658 
Q 1478 2475 1428 2131 
L 2881 2131 
z
" transform="scale(0.015625)"/>
      <path id="DejaVuSans-Bold-61" d="M 2106 1575 
Q 1756 1575 1579 1456 
Q 1403 1338 1403 1106 
Q 1403 894 1545 773 
Q 1688 653 1941 653 
Q 2256 653 2472 879 
Q 2688 1106 2688 1447 
L 2688 1575 
L 2106 1575 
z
M 3816 1997 
L 3816 0 
L 2688 0 
L 2688 519 
Q 2463 200 2181 54 
Q 1900 -91 1497 -91 
Q 953 -91 614 226 
Q 275 544 275 1050 
Q 275 1666 698 1953 
Q 1122 2241 2028 2241 
L 2688 2241 
L 2688 2328 
Q 2688 2594 2478 2717 
Q 2269 2841 1825 2841 
Q 1466 2841 1156 2769 
Q 847 2697 581 2553 
L 581 3406 
Q 941 3494 1303 3539 
Q 1666 3584 2028 3584 
Q 2975 3584 3395 3211 
Q 3816 2838 3816 1997 
z
" transform="scale(0.015625)"/>
      <path id="DejaVuSans-Bold-6e" d="M 4056 2131 
L 4056 0 
L 2931 0 
L 2931 347 
L 2931 1631 
Q 2931 2084 2911 2256 
Q 2891 2428 2841 2509 
Q 2775 2619 2662 2680 
Q 2550 2741 2406 2741 
Q 2056 2741 1856 2470 
Q 1656 2200 1656 1722 
L 1656 0 
L 538 0 
L 538 3500 
L 1656 3500 
L 1656 2988 
Q 1909 3294 2193 3439 
Q 2478 3584 2822 3584 
Q 3428 3584 3742 3212 
Q 4056 2841 4056 2131 
z
" transform="scale(0.015625)"/>
      <path id="DejaVuSans-Bold-20" transform="scale(0.015625)"/>
      <path id="DejaVuSans-Bold-2d" d="M 347 2297 
L 2309 2297 
L 2309 1388 
L 347 1388 
L 347 2297 
z
" transform="scale(0.015625)"/>
      <path id="DejaVuSans-Bold-30" d="M 2944 2338 
Q 2944 3213 2780 3570 
Q 2616 3928 2228 3928 
Q 1841 3928 1675 3570 
Q 1509 3213 1509 2338 
Q 1509 1453 1675 1090 
Q 1841 728 2228 728 
Q 2613 728 2778 1090 
Q 2944 1453 2944 2338 
z
M 4147 2328 
Q 4147 1169 3647 539 
Q 3147 -91 2228 -91 
Q 1306 -91 806 539 
Q 306 1169 306 2328 
Q 306 3491 806 4120 
Q 1306 4750 2228 4750 
Q 3147 4750 3647 4120 
Q 4147 3491 4147 2328 
z
" transform="scale(0.015625)"/>
      <path id="DejaVuSans-Bold-2e" d="M 653 1209 
L 1778 1209 
L 1778 0 
L 653 0 
L 653 1209 
z
" transform="scale(0.015625)"/>
      <path id="DejaVuSans-Bold-34" d="M 2356 3675 
L 1038 1722 
L 2356 1722 
L 2356 3675 
z
M 2156 4666 
L 3494 4666 
L 3494 1722 
L 4159 1722 
L 4159 850 
L 3494 850 
L 3494 0 
L 2356 0 
L 2356 850 
L 288 850 
L 288 1881 
L 2156 4666 
z
" transform="scale(0.015625)"/>
     </defs>
     <use xlink:href="#DejaVuSans-Bold-6d"/>
     <use xlink:href="#DejaVuSans-Bold-65" transform="translate(104.199219 0)"/>
     <use xlink:href="#DejaVuSans-Bold-61" transform="translate(172.021484 0)"/>
     <use xlink:href="#DejaVuSans-Bold-6e" transform="translate(239.501953 0)"/>
     <use xlink:href="#DejaVuSans-Bold-20" transform="translate(310.693359 0)"/>
     <use xlink:href="#DejaVuSans-Bold-2d" transform="translate(345.507812 0)"/>
     <use xlink:href="#DejaVuSans-Bold-30" transform="translate(387.011719 0)"/>
     <use xlink:href="#DejaVuSans-Bold-2e" transform="translate(456.591797 0)"/>
     <use xlink:href="#DejaVuSans-Bold-34" transform="translate(494.580078 0)"/>
     <use xlink:href="#DejaVuSans-Bold-34" transform="translate(564.160156 0)"/>
    </g>
   </g>
   <g id="text_10">
    <!-- mean -0.07 -->
    <g style="fill: #1a1a2e" transform="translate(310.450533 145.811799) scale(0.095 -0.095)">
     <defs>
      <path id="DejaVuSans-Bold-37" d="M 428 4666 
L 3944 4666 
L 3944 3988 
L 2125 0 
L 953 0 
L 2675 3781 
L 428 3781 
L 428 4666 
z
" transform="scale(0.015625)"/>
     </defs>
     <use xlink:href="#DejaVuSans-Bold-6d"/>
     <use xlink:href="#DejaVuSans-Bold-65" transform="translate(104.199219 0)"/>
     <use xlink:href="#DejaVuSans-Bold-61" transform="translate(172.021484 0)"/>
     <use xlink:href="#DejaVuSans-Bold-6e" transform="translate(239.501953 0)"/>
     <use xlink:href="#DejaVuSans-Bold-20" transform="translate(310.693359 0)"/>
     <use xlink:href="#DejaVuSans-Bold-2d" transform="translate(345.507812 0)"/>
     <use xlink:href="#DejaVuSans-Bold-30" transform="translate(387.011719 0)"/>
     <use xlink:href="#DejaVuSans-Bold-2e" transform="translate(456.591797 0)"/>
     <use xlink:href="#DejaVuSans-Bold-30" transform="translate(494.580078 0)"/>
     <use xlink:href="#DejaVuSans-Bold-37" transform="translate(564.160156 0)"/>
    </g>
   </g>
   <g id="line2d_43">
    <path d="M 161.64326 261.000843 
L 294.506896 143.190393 
" clip-path="url(#p9eab8a25ba)" style="fill: none; stroke: #1a1a2e; stroke-width: 2.5; stroke-linecap: round"/>
   </g>
   <g id="legend_1">
    <g id="line2d_44">
     <path d="M 114.291172 397.78165 
L 122.391172 397.78165 
L 130.491172 397.78165 
" style="fill: none; stroke: #888888; stroke-opacity: 0.6; stroke-linecap: square"/>
    </g>
    <g id="text_11">
     <!-- Coupling less negative in tumor (33 patients) -->
     <g transform="translate(137.691172 400.93165) scale(0.09 -0.09)">
      <defs>
       <path id="DejaVuSans-67" d="M 2906 1791 
Q 2906 2416 2648 2759 
Q 2391 3103 1925 3103 
Q 1463 3103 1205 2759 
Q 947 2416 947 1791 
Q 947 1169 1205 825 
Q 1463 481 1925 481 
Q 2391 481 2648 825 
Q 2906 1169 2906 1791 
z
M 3481 434 
Q 3481 -459 3084 -895 
Q 2688 -1331 1869 -1331 
Q 1566 -1331 1297 -1286 
Q 1028 -1241 775 -1147 
L 775 -588 
Q 1028 -725 1275 -790 
Q 1522 -856 1778 -856 
Q 2344 -856 2625 -561 
Q 2906 -266 2906 331 
L 2906 616 
Q 2728 306 2450 153 
Q 2172 0 1784 0 
Q 1141 0 747 490 
Q 353 981 353 1791 
Q 353 2603 747 3093 
Q 1141 3584 1784 3584 
Q 2172 3584 2450 3431 
Q 2728 3278 2906 2969 
L 2906 3500 
L 3481 3500 
L 3481 434 
z
" transform="scale(0.015625)"/>
       <path id="DejaVuSans-33" d="M 2597 2516 
Q 3050 2419 3304 2112 
Q 3559 1806 3559 1356 
Q 3559 666 3084 287 
Q 2609 -91 1734 -91 
Q 1441 -91 1130 -33 
Q 819 25 488 141 
L 488 750 
Q 750 597 1062 519 
Q 1375 441 1716 441 
Q 2309 441 2620 675 
Q 2931 909 2931 1356 
Q 2931 1769 2642 2001 
Q 2353 2234 1838 2234 
L 1294 2234 
L 1294 2753 
L 1863 2753 
Q 2328 2753 2575 2939 
Q 2822 3125 2822 3475 
Q 2822 3834 2567 4026 
Q 2313 4219 1838 4219 
Q 1578 4219 1281 4162 
Q 984 4106 628 3988 
L 628 4550 
Q 988 4650 1302 4700 
Q 1616 4750 1894 4750 
Q 2613 4750 3031 4423 
Q 3450 4097 3450 3541 
Q 3450 3153 3228 2886 
Q 3006 2619 2597 2516 
z
" transform="scale(0.015625)"/>
      </defs>
      <use xlink:href="#DejaVuSans-43"/>
      <use xlink:href="#DejaVuSans-6f" transform="translate(69.824219 0)"/>
      <use xlink:href="#DejaVuSans-75" transform="translate(131.005859 0)"/>
      <use xlink:href="#DejaVuSans-70" transform="translate(194.384766 0)"/>
      <use xlink:href="#DejaVuSans-6c" transform="translate(257.861328 0)"/>
      <use xlink:href="#DejaVuSans-69" transform="translate(285.644531 0)"/>
      <use xlink:href="#DejaVuSans-6e" transform="translate(313.427734 0)"/>
      <use xlink:href="#DejaVuSans-67" transform="translate(376.806641 0)"/>
      <use xlink:href="#DejaVuSans-20" transform="translate(440.283203 0)"/>
      <use xlink:href="#DejaVuSans-6c" transform="translate(472.070312 0)"/>
      <use xlink:href="#DejaVuSans-65" transform="translate(499.853516 0)"/>
      <use xlink:href="#DejaVuSans-73" transform="translate(561.376953 0)"/>
      <use xlink:href="#DejaVuSans-73" transform="translate(613.476562 0)"/>
      <use xlink:href="#DejaVuSans-20" transform="translate(665.576172 0)"/>
      <use xlink:href="#DejaVuSans-6e" transform="translate(697.363281 0)"/>
      <use xlink:href="#DejaVuSans-65" transform="translate(760.742188 0)"/>
      <use xlink:href="#DejaVuSans-67" transform="translate(822.265625 0)"/>
      <use xlink:href="#DejaVuSans-61" transform="translate(885.742188 0)"/>
      <use xlink:href="#DejaVuSans-74" transform="translate(947.021484 0)"/>
      <use xlink:href="#DejaVuSans-69" transform="translate(986.230469 0)"/>
      <use xlink:href="#DejaVuSans-76" transform="translate(1014.013672 0)"/>
      <use xlink:href="#DejaVuSans-65" transform="translate(1073.193359 0)"/>
      <use xlink:href="#DejaVuSans-20" transform="translate(1134.716797 0)"/>
      <use xlink:href="#DejaVuSans-69" transform="translate(1166.503906 0)"/>
      <use xlink:href="#DejaVuSans-6e" transform="translate(1194.287109 0)"/>
      <use xlink:href="#DejaVuSans-20" transform="translate(1257.666016 0)"/>
      <use xlink:href="#DejaVuSans-74" transform="translate(1289.453125 0)"/>
      <use xlink:href="#DejaVuSans-75" transform="translate(1328.662109 0)"/>
      <use xlink:href="#DejaVuSans-6d" transform="translate(1392.041016 0)"/>
      <use xlink:href="#DejaVuSans-6f" transform="translate(1489.453125 0)"/>
      <use xlink:href="#DejaVuSans-72" transform="translate(1550.634766 0)"/>
      <use xlink:href="#DejaVuSans-20" transform="translate(1591.748047 0)"/>
      <use xlink:href="#DejaVuSans-28" transform="translate(1623.535156 0)"/>
      <use xlink:href="#DejaVuSans-33" transform="translate(1662.548828 0)"/>
      <use xlink:href="#DejaVuSans-33" transform="translate(1726.171875 0)"/>
      <use xlink:href="#DejaVuSans-20" transform="translate(1789.794922 0)"/>
      <use xlink:href="#DejaVuSans-70" transform="translate(1821.582031 0)"/>
      <use xlink:href="#DejaVuSans-61" transform="translate(1885.058594 0)"/>
      <use xlink:href="#DejaVuSans-74" transform="translate(1946.337891 0)"/>
      <use xlink:href="#DejaVuSans-69" transform="translate(1985.546875 0)"/>
      <use xlink:href="#DejaVuSans-65" transform="translate(2013.330078 0)"/>
      <use xlink:href="#DejaVuSans-6e" transform="translate(2074.853516 0)"/>
      <use xlink:href="#DejaVuSans-74" transform="translate(2138.232422 0)"/>
      <use xlink:href="#DejaVuSans-73" transform="translate(2177.441406 0)"/>
      <use xlink:href="#DejaVuSans-29" transform="translate(2229.541016 0)"/>
     </g>
    </g>
    <g id="line2d_45">
     <path d="M 114.291172 410.991962 
L 122.391172 410.991962 
L 130.491172 410.991962 
" style="fill: none; stroke: #c47a3a; stroke-opacity: 0.8; stroke-linecap: square"/>
    </g>
    <g id="text_12">
     <!-- Coupling more negative in tumor (1 patient) -->
     <g transform="translate(137.691172 414.141962) scale(0.09 -0.09)">
      <defs>
       <path id="DejaVuSans-31" d="M 794 531 
L 1825 531 
L 1825 4091 
L 703 3866 
L 703 4441 
L 1819 4666 
L 2450 4666 
L 2450 531 
L 3481 531 
L 3481 0 
L 794 0 
L 794 531 
z
" transform="scale(0.015625)"/>
      </defs>
      <use xlink:href="#DejaVuSans-43"/>
      <use xlink:href="#DejaVuSans-6f" transform="translate(69.824219 0)"/>
      <use xlink:href="#DejaVuSans-75" transform="translate(131.005859 0)"/>
      <use xlink:href="#DejaVuSans-70" transform="translate(194.384766 0)"/>
      <use xlink:href="#DejaVuSans-6c" transform="translate(257.861328 0)"/>
      <use xlink:href="#DejaVuSans-69" transform="translate(285.644531 0)"/>
      <use xlink:href="#DejaVuSans-6e" transform="translate(313.427734 0)"/>
      <use xlink:href="#DejaVuSans-67" transform="translate(376.806641 0)"/>
      <use xlink:href="#DejaVuSans-20" transform="translate(440.283203 0)"/>
      <use xlink:href="#DejaVuSans-6d" transform="translate(472.070312 0)"/>
      <use xlink:href="#DejaVuSans-6f" transform="translate(569.482422 0)"/>
      <use xlink:href="#DejaVuSans-72" transform="translate(630.664062 0)"/>
      <use xlink:href="#DejaVuSans-65" transform="translate(669.527344 0)"/>
      <use xlink:href="#DejaVuSans-20" transform="translate(731.050781 0)"/>
      <use xlink:href="#DejaVuSans-6e" transform="translate(762.837891 0)"/>
      <use xlink:href="#DejaVuSans-65" transform="translate(826.216797 0)"/>
      <use xlink:href="#DejaVuSans-67" transform="translate(887.740234 0)"/>
      <use xlink:href="#DejaVuSans-61" transform="translate(951.216797 0)"/>
      <use xlink:href="#DejaVuSans-74" transform="translate(1012.496094 0)"/>
      <use xlink:href="#DejaVuSans-69" transform="translate(1051.705078 0)"/>
      <use xlink:href="#DejaVuSans-76" transform="translate(1079.488281 0)"/>
      <use xlink:href="#DejaVuSans-65" transform="translate(1138.667969 0)"/>
      <use xlink:href="#DejaVuSans-20" transform="translate(1200.191406 0)"/>
      <use xlink:href="#DejaVuSans-69" transform="translate(1231.978516 0)"/>
      <use xlink:href="#DejaVuSans-6e" transform="translate(1259.761719 0)"/>
      <use xlink:href="#DejaVuSans-20" transform="translate(1323.140625 0)"/>
      <use xlink:href="#DejaVuSans-74" transform="translate(1354.927734 0)"/>
      <use xlink:href="#DejaVuSans-75" transform="translate(1394.136719 0)"/>
      <use xlink:href="#DejaVuSans-6d" transform="translate(1457.515625 0)"/>
      <use xlink:href="#DejaVuSans-6f" transform="translate(1554.927734 0)"/>
      <use xlink:href="#DejaVuSans-72" transform="translate(1616.109375 0)"/>
      <use xlink:href="#DejaVuSans-20" transform="translate(1657.222656 0)"/>
      <use xlink:href="#DejaVuSans-28" transform="translate(1689.009766 0)"/>
      <use xlink:href="#DejaVuSans-31" transform="translate(1728.023438 0)"/>
      <use xlink:href="#DejaVuSans-20" transform="translate(1791.646484 0)"/>
      <use xlink:href="#DejaVuSans-70" transform="translate(1823.433594 0)"/>
      <use xlink:href="#DejaVuSans-61" transform="translate(1886.910156 0)"/>
      <use xlink:href="#DejaVuSans-74" transform="translate(1948.189453 0)"/>
      <use xlink:href="#DejaVuSans-69" transform="translate(1987.398438 0)"/>
      <use xlink:href="#DejaVuSans-65" transform="translate(2015.181641 0)"/>
      <use xlink:href="#DejaVuSans-6e" transform="translate(2076.705078 0)"/>
      <use xlink:href="#DejaVuSans-74" transform="translate(2140.083984 0)"/>
      <use xlink:href="#DejaVuSans-29" transform="translate(2179.292969 0)"/>
     </g>
    </g>
   </g>
   <g id="line2d_46">
    <defs>
     <path id="m22f2ece23f" d="M 0 3.5 
C 0.928211 3.5 1.81853 3.131218 2.474874 2.474874 
C 3.131218 1.81853 3.5 0.928211 3.5 0 
C 3.5 -0.928211 3.131218 -1.81853 2.474874 -2.474874 
C 1.81853 -3.131218 0.928211 -3.5 0 -3.5 
C -0.928211 -3.5 -1.81853 -3.131218 -2.474874 -2.474874 
C -3.131218 -1.81853 -3.5 -0.928211 -3.5 0 
C -3.5 0.928211 -3.131218 1.81853 -2.474874 2.474874 
C -1.81853 3.131218 -0.928211 3.5 0 3.5 
z
" style="stroke: #1a1a2e"/>
    </defs>
    <g clip-path="url(#p9eab8a25ba)">
     <use xlink:href="#m22f2ece23f" x="161.64326" y="261.000843" style="fill: #1a1a2e; stroke: #1a1a2e"/>
    </g>
   </g>
   <g id="line2d_47">
    <g clip-path="url(#p9eab8a25ba)">
     <use xlink:href="#m22f2ece23f" x="294.506896" y="143.190393" style="fill: #1a1a2e; stroke: #1a1a2e"/>
    </g>
   </g>
  </g>
  <g id="text_13">
   <!-- ISC–lipid/FAO coupling per donor: tumor vs adjacent-normal -->
   <g transform="translate(10.8 20.677969) scale(0.13 -0.13)">
    <defs>
     <path id="DejaVuSans-2013" d="M 313 1978 
L 2888 1978 
L 2888 1528 
L 313 1528 
L 313 1978 
z
" transform="scale(0.015625)"/>
     <path id="DejaVuSans-3a" d="M 750 794 
L 1409 794 
L 1409 0 
L 750 0 
L 750 794 
z
M 750 3309 
L 1409 3309 
L 1409 2516 
L 750 2516 
L 750 3309 
z
" transform="scale(0.015625)"/>
    </defs>
    <use xlink:href="#DejaVuSans-49"/>
    <use xlink:href="#DejaVuSans-53" transform="translate(29.492188 0)"/>
    <use xlink:href="#DejaVuSans-43" transform="translate(92.96875 0)"/>
    <use xlink:href="#DejaVuSans-2013" transform="translate(162.792969 0)"/>
    <use xlink:href="#DejaVuSans-6c" transform="translate(212.792969 0)"/>
    <use xlink:href="#DejaVuSans-69" transform="translate(240.576172 0)"/>
    <use xlink:href="#DejaVuSans-70" transform="translate(268.359375 0)"/>
    <use xlink:href="#DejaVuSans-69" transform="translate(331.835938 0)"/>
    <use xlink:href="#DejaVuSans-64" transform="translate(359.619141 0)"/>
    <use xlink:href="#DejaVuSans-2f" transform="translate(423.095703 0)"/>
    <use xlink:href="#DejaVuSans-46" transform="translate(456.787109 0)"/>
    <use xlink:href="#DejaVuSans-41" transform="translate(505.181641 0)"/>
    <use xlink:href="#DejaVuSans-4f" transform="translate(571.839844 0)"/>
    <use xlink:href="#DejaVuSans-20" transform="translate(650.550781 0)"/>
    <use xlink:href="#DejaVuSans-63" transform="translate(682.337891 0)"/>
    <use xlink:href="#DejaVuSans-6f" transform="translate(737.318359 0)"/>
    <use xlink:href="#DejaVuSans-75" transform="translate(798.5 0)"/>
    <use xlink:href="#DejaVuSans-70" transform="translate(861.878906 0)"/>
    <use xlink:href="#DejaVuSans-6c" transform="translate(925.355469 0)"/>
    <use xlink:href="#DejaVuSans-69" transform="translate(953.138672 0)"/>
    <use xlink:href="#DejaVuSans-6e" transform="translate(980.921875 0)"/>
    <use xlink:href="#DejaVuSans-67" transform="translate(1044.300781 0)"/>
    <use xlink:href="#DejaVuSans-20" transform="translate(1107.777344 0)"/>
    <use xlink:href="#DejaVuSans-70" transform="translate(1139.564453 0)"/>
    <use xlink:href="#DejaVuSans-65" transform="translate(1203.041016 0)"/>
    <use xlink:href="#DejaVuSans-72" transform="translate(1264.564453 0)"/>
    <use xlink:href="#DejaVuSans-20" transform="translate(1305.677734 0)"/>
    <use xlink:href="#DejaVuSans-64" transform="translate(1337.464844 0)"/>
    <use xlink:href="#DejaVuSans-6f" transform="translate(1400.941406 0)"/>
    <use xlink:href="#DejaVuSans-6e" transform="translate(1462.123047 0)"/>
    <use xlink:href="#DejaVuSans-6f" transform="translate(1525.501953 0)"/>
    <use xlink:href="#DejaVuSans-72" transform="translate(1586.683594 0)"/>
    <use xlink:href="#DejaVuSans-3a" transform="translate(1626.046875 0)"/>
    <use xlink:href="#DejaVuSans-20" transform="translate(1659.738281 0)"/>
    <use xlink:href="#DejaVuSans-74" transform="translate(1691.525391 0)"/>
    <use xlink:href="#DejaVuSans-75" transform="translate(1730.734375 0)"/>
    <use xlink:href="#DejaVuSans-6d" transform="translate(1794.113281 0)"/>
    <use xlink:href="#DejaVuSans-6f" transform="translate(1891.525391 0)"/>
    <use xlink:href="#DejaVuSans-72" transform="translate(1952.707031 0)"/>
    <use xlink:href="#DejaVuSans-20" transform="translate(1993.820312 0)"/>
    <use xlink:href="#DejaVuSans-76" transform="translate(2025.607422 0)"/>
    <use xlink:href="#DejaVuSans-73" transform="translate(2084.787109 0)"/>
    <use xlink:href="#DejaVuSans-20" transform="translate(2136.886719 0)"/>
    <use xlink:href="#DejaVuSans-61" transform="translate(2168.673828 0)"/>
    <use xlink:href="#DejaVuSans-64" transform="translate(2229.953125 0)"/>
    <use xlink:href="#DejaVuSans-6a" transform="translate(2293.429688 0)"/>
    <use xlink:href="#DejaVuSans-61" transform="translate(2321.212891 0)"/>
    <use xlink:href="#DejaVuSans-63" transform="translate(2382.492188 0)"/>
    <use xlink:href="#DejaVuSans-65" transform="translate(2437.472656 0)"/>
    <use xlink:href="#DejaVuSans-6e" transform="translate(2498.996094 0)"/>
    <use xlink:href="#DejaVuSans-74" transform="translate(2562.375 0)"/>
    <use xlink:href="#DejaVuSans-2d" transform="translate(2601.583984 0)"/>
    <use xlink:href="#DejaVuSans-6e" transform="translate(2637.667969 0)"/>
    <use xlink:href="#DejaVuSans-6f" transform="translate(2701.046875 0)"/>
    <use xlink:href="#DejaVuSans-72" transform="translate(2762.228516 0)"/>
    <use xlink:href="#DejaVuSans-6d" transform="translate(2801.591797 0)"/>
    <use xlink:href="#DejaVuSans-61" transform="translate(2899.003906 0)"/>
    <use xlink:href="#DejaVuSans-6c" transform="translate(2960.283203 0)"/>
   </g>
  </g>
  <g id="text_14">
   <!-- Pelka 2021 cE01 Stem/TA-like cells  ·  n = 34 paired donors -->
   <g style="fill: #808080" transform="translate(57.214922 34.56) scale(0.1 -0.1)">
    <defs>
     <path id="DejaVuSans-6b" d="M 581 4863 
L 1159 4863 
L 1159 1991 
L 2875 3500 
L 3609 3500 
L 1753 1863 
L 3688 0 
L 2938 0 
L 1159 1709 
L 1159 0 
L 581 0 
L 581 4863 
z
" transform="scale(0.015625)"/>
     <path id="DejaVuSans-45" d="M 628 4666 
L 3578 4666 
L 3578 4134 
L 1259 4134 
L 1259 2753 
L 3481 2753 
L 3481 2222 
L 1259 2222 
L 1259 531 
L 3634 531 
L 3634 0 
L 628 0 
L 628 4666 
z
" transform="scale(0.015625)"/>
     <path id="DejaVuSans-b7" d="M 684 2619 
L 1344 2619 
L 1344 1825 
L 684 1825 
L 684 2619 
z
" transform="scale(0.015625)"/>
     <path id="DejaVuSans-3d" d="M 678 2906 
L 4684 2906 
L 4684 2381 
L 678 2381 
L 678 2906 
z
M 678 1631 
L 4684 1631 
L 4684 1100 
L 678 1100 
L 678 1631 
z
" transform="scale(0.015625)"/>
    </defs>
    <use xlink:href="#DejaVuSans-50"/>
    <use xlink:href="#DejaVuSans-65" transform="translate(56.677734 0)"/>
    <use xlink:href="#DejaVuSans-6c" transform="translate(118.201172 0)"/>
    <use xlink:href="#DejaVuSans-6b" transform="translate(145.984375 0)"/>
    <use xlink:href="#DejaVuSans-61" transform="translate(202.144531 0)"/>
    <use xlink:href="#DejaVuSans-20" transform="translate(263.423828 0)"/>
    <use xlink:href="#DejaVuSans-32" transform="translate(295.210938 0)"/>
    <use xlink:href="#DejaVuSans-30" transform="translate(358.833984 0)"/>
    <use xlink:href="#DejaVuSans-32" transform="translate(422.457031 0)"/>
    <use xlink:href="#DejaVuSans-31" transform="translate(486.080078 0)"/>
    <use xlink:href="#DejaVuSans-20" transform="translate(549.703125 0)"/>
    <use xlink:href="#DejaVuSans-63" transform="translate(581.490234 0)"/>
    <use xlink:href="#DejaVuSans-45" transform="translate(636.470703 0)"/>
    <use xlink:href="#DejaVuSans-30" transform="translate(699.654297 0)"/>
    <use xlink:href="#DejaVuSans-31" transform="translate(763.277344 0)"/>
    <use xlink:href="#DejaVuSans-20" transform="translate(826.900391 0)"/>
    <use xlink:href="#DejaVuSans-53" transform="translate(858.6875 0)"/>
    <use xlink:href="#DejaVuSans-74" transform="translate(922.164062 0)"/>
    <use xlink:href="#DejaVuSans-65" transform="translate(961.373047 0)"/>
    <use xlink:href="#DejaVuSans-6d" transform="translate(1022.896484 0)"/>
    <use xlink:href="#DejaVuSans-2f" transform="translate(1120.308594 0)"/>
    <use xlink:href="#DejaVuSans-54" transform="translate(1154 0)"/>
    <use xlink:href="#DejaVuSans-41" transform="translate(1207.333984 0)"/>
    <use xlink:href="#DejaVuSans-2d" transform="translate(1273.492188 0)"/>
    <use xlink:href="#DejaVuSans-6c" transform="translate(1309.576172 0)"/>
    <use xlink:href="#DejaVuSans-69" transform="translate(1337.359375 0)"/>
    <use xlink:href="#DejaVuSans-6b" transform="translate(1365.142578 0)"/>
    <use xlink:href="#DejaVuSans-65" transform="translate(1419.427734 0)"/>
    <use xlink:href="#DejaVuSans-20" transform="translate(1480.951172 0)"/>
    <use xlink:href="#DejaVuSans-63" transform="translate(1512.738281 0)"/>
    <use xlink:href="#DejaVuSans-65" transform="translate(1567.71875 0)"/>
    <use xlink:href="#DejaVuSans-6c" transform="translate(1629.242188 0)"/>
    <use xlink:href="#DejaVuSans-6c" transform="translate(1657.025391 0)"/>
    <use xlink:href="#DejaVuSans-73" transform="translate(1684.808594 0)"/>
    <use xlink:href="#DejaVuSans-20" transform="translate(1736.908203 0)"/>
    <use xlink:href="#DejaVuSans-20" transform="translate(1768.695312 0)"/>
    <use xlink:href="#DejaVuSans-b7" transform="translate(1800.482422 0)"/>
    <use xlink:href="#DejaVuSans-20" transform="translate(1832.269531 0)"/>
    <use xlink:href="#DejaVuSans-20" transform="translate(1864.056641 0)"/>
    <use xlink:href="#DejaVuSans-6e" transform="translate(1895.84375 0)"/>
    <use xlink:href="#DejaVuSans-20" transform="translate(1959.222656 0)"/>
    <use xlink:href="#DejaVuSans-3d" transform="translate(1991.009766 0)"/>
    <use xlink:href="#DejaVuSans-20" transform="translate(2074.798828 0)"/>
    <use xlink:href="#DejaVuSans-33" transform="translate(2106.585938 0)"/>
    <use xlink:href="#DejaVuSans-34" transform="translate(2170.208984 0)"/>
    <use xlink:href="#DejaVuSans-20" transform="translate(2233.832031 0)"/>
    <use xlink:href="#DejaVuSans-70" transform="translate(2265.619141 0)"/>
    <use xlink:href="#DejaVuSans-61" transform="translate(2329.095703 0)"/>
    <use xlink:href="#DejaVuSans-69" transform="translate(2390.375 0)"/>
    <use xlink:href="#DejaVuSans-72" transform="translate(2418.158203 0)"/>
    <use xlink:href="#DejaVuSans-65" transform="translate(2457.021484 0)"/>
    <use xlink:href="#DejaVuSans-64" transform="translate(2518.544922 0)"/>
    <use xlink:href="#DejaVuSans-20" transform="translate(2582.021484 0)"/>
    <use xlink:href="#DejaVuSans-64" transform="translate(2613.808594 0)"/>
    <use xlink:href="#DejaVuSans-6f" transform="translate(2677.285156 0)"/>
    <use xlink:href="#DejaVuSans-6e" transform="translate(2738.466797 0)"/>
    <use xlink:href="#DejaVuSans-6f" transform="translate(2801.845703 0)"/>
    <use xlink:href="#DejaVuSans-72" transform="translate(2863.027344 0)"/>
    <use xlink:href="#DejaVuSans-73" transform="translate(2904.140625 0)"/>
   </g>
  </g>
 </g>
 <defs>
  <clipPath id="p9eab8a25ba">
   <rect x="81.925078" y="36.48" width="292.3" height="306.5904"/>
  </clipPath>
 </defs>
</svg>
